# xmcd
#
# Track frame offsets:
# 150
# 752
# 13115
# 27901
# 35776
# 48729
# 55268
# 67976
# 80715
# 94822
# 101746
# 112664
# 123323
# 132440
# 140708
# 154823
#
# Disc length: 3789 seconds
#
#
# Revision: 0
# Processed by: cddbd v1.5.1PL0 Copyright (c) Steve Scherf et al.
# Submitted via: FreeRIP 2.942 
#
DISCID=d50ecb10
DTITLE=Irmãos Panarotto - 2 Violão e 1 Balde
DYEAR=2005
DGENRE=Polka
TTITLE0=01
TTITLE1=2 Violão e 1 Balde
TTITLE2=Barroca do Sapo Pintado
TTITLE3=Nereu
TTITLE4=Chinelo Véio
TTITLE5=Os Produtores e os Cagalhão
TTITLE6=Funk'nerão
TTITLE7=Nunca Mais eu Vou Amar Alguém
TTITLE8=Cantando com Los Muertos
TTITLE9=Tanque
TTITLE10=memórias de um Certo Louco
TTITLE11=Jarinuza
TTITLE12=G.X.
TTITLE13=Tarcisio Parisotto
TTITLE14=Chimarrão
TTITLE15=Benga em Chapecó
EXTD=Róque da colonia \\o/
EXTT0=
EXTT1=
EXTT2=
EXTT3=
EXTT4=
EXTT5=
EXTT6=
EXTT7=
EXTT8=
EXTT9=
EXTT10=
EXTT11=
EXTT12=
EXTT13=
EXTT14=
EXTT15=
PLAYORDER=
